<svg width="463" height="476" viewBox="0 0 463 476" fill="none" xmlns="http://www.w3.org/2000/svg">
<path d="M104.632 475.615C97.541 475.615 90.5559 475.075 83.8882 473.725C57.5351 468.505 59.7577 446.278 61.6627 426.749C62.2977 420.99 62.8269 415.5 62.6152 410.641C61.9802 391.473 53.4075 377.074 44.4115 361.776C40.8131 355.836 37.2146 349.627 33.9337 342.967C22.821 320.65 17 296.172 17 272.054C17 250.726 22.3976 229.398 27.6894 208.79C28.6419 205.011 29.5945 201.321 30.547 197.541C31.7112 192.862 32.6637 188.002 33.7221 182.783C38.0613 161.635 42.9298 137.607 60.9219 122.398C77.3264 108.54 100.822 105.84 123.471 103.32C128.974 102.69 134.16 102.15 139.24 101.34C147.284 100.171 155.433 98.8207 163.371 97.4708C185.385 93.7812 208.245 89.9115 231 90.0015C259.364 90.1815 286.352 95.491 316.198 101.88C319.161 102.51 322.23 103.14 325.3 103.77C349.959 108.9 375.466 114.119 393.564 129.508C412.191 145.256 419.599 167.484 426.902 188.992C427.537 190.792 428.066 192.592 428.701 194.302C437.168 219.139 445 245.777 445 271.964C445 292.122 440.026 312.46 435.369 332.168C434.099 337.298 432.829 342.517 431.665 347.647C430.924 350.797 430.289 353.946 429.654 357.006C426.161 374.284 422.563 392.193 406.899 405.691C386.473 423.42 354.934 431.339 327.099 438.358C324.241 439.078 321.384 439.798 318.632 440.518C288.786 448.167 258.411 452.847 231 453.927C213.431 454.647 194.169 459.236 173.743 464.186C150.671 469.855 126.963 475.615 104.632 475.615ZM230.047 90.9914C207.716 90.9914 185.279 94.7711 163.583 98.4607C155.645 99.8106 147.496 101.16 139.346 102.33C134.266 103.05 129.08 103.68 123.577 104.31C101.139 106.83 77.8556 109.44 61.6627 123.118C43.8823 138.147 39.0138 161.995 34.6746 183.053C33.6162 188.182 32.6637 193.132 31.4995 197.811C30.547 201.591 29.5945 205.281 28.6419 209.06C23.456 229.578 18.0584 250.816 17.9525 272.144C17.9525 296.172 23.7735 320.47 34.6746 342.607C37.9555 349.267 41.6597 355.386 45.1523 361.326C54.2542 376.624 62.8269 391.113 63.5678 410.551C63.7794 415.5 63.1444 420.99 62.6152 426.839C60.7102 446.008 58.4876 467.786 83.9941 472.825C111.723 478.315 143.05 470.755 173.425 463.466C193.852 458.516 213.114 453.927 230.894 453.207C258.306 452.127 288.469 447.447 318.315 439.798C321.066 439.078 323.924 438.358 326.781 437.638C354.51 430.619 385.944 422.7 406.158 405.241C421.504 391.923 424.997 375.004 428.595 357.006C429.23 353.946 429.865 350.707 430.606 347.647C431.771 342.517 433.041 337.208 434.311 332.168C439.073 312.55 443.942 292.212 443.942 272.144C443.942 246.137 436.11 219.589 427.749 194.752C427.114 192.952 426.585 191.242 425.95 189.442C418.753 168.024 411.344 145.886 392.929 130.318C374.937 115.109 349.642 109.89 325.088 104.76C322.019 104.13 318.95 103.5 315.986 102.87C286.14 96.4809 259.258 91.1714 231 90.9914C230.682 90.9914 230.365 90.9914 230.047 90.9914Z" fill="white" fill-opacity="0.2"/>
<path d="M126.328 454.737C120.613 454.737 115.004 454.377 109.5 453.567C81.1365 449.517 80.2898 431.339 79.3373 412.081C79.1256 407.491 78.9139 402.722 78.2789 398.222C76.0564 382.384 68.4362 370.055 60.2868 357.096C56.3709 350.887 52.3492 344.407 48.8566 337.478C38.1672 315.97 32.8754 293.382 33.2987 272.054C33.7221 254.596 35.7329 236.328 37.7438 218.689C38.6963 210.68 39.543 202.401 40.3897 194.302C40.7072 190.972 40.9189 187.552 41.2364 183.863C42.8239 161.995 44.6231 137.157 63.0386 121.679C80.6073 106.92 107.172 107.19 130.668 107.46C134.795 107.55 138.711 107.55 142.627 107.55C157.444 107.46 172.79 106.56 187.501 105.75C202.001 104.94 216.924 104.13 231 104.04C254.496 103.86 279.79 106.83 304.344 109.8C308.154 110.25 311.964 110.7 315.774 111.15C317.362 111.33 318.844 111.509 320.431 111.689C344.668 114.479 369.751 117.269 387.743 132.567C406.899 148.766 412.297 173.154 417.059 194.752L417.8 197.991C422.986 221.389 429.019 248.026 428.595 272.144C428.384 283.483 427.431 295.362 426.585 306.971C425.632 318.49 424.785 330.369 424.574 341.888C424.574 344.047 424.468 346.207 424.468 348.367C424.362 366.905 424.256 384.363 407.957 398.492C388.06 415.77 356.839 421.89 329.216 427.289C326.993 427.739 324.771 428.189 322.548 428.639C292.385 434.669 260.74 438.628 231.106 440.068C216.501 440.788 201.048 443.848 184.75 446.997C165.382 450.867 145.485 454.737 126.328 454.737ZM121.248 108.36C100.504 108.36 78.7023 109.8 63.7794 122.398C45.6815 137.697 43.8823 162.265 42.2948 184.043C42.0831 187.642 41.7656 191.152 41.4481 194.482C40.7072 202.581 39.7547 210.86 38.8022 218.869C36.7913 236.508 34.7804 254.686 34.3571 272.144C33.8279 293.382 39.2255 315.88 49.8091 337.208C53.3017 344.137 57.2176 350.527 61.1335 356.826C69.2829 369.875 77.0089 382.294 79.2314 398.312C79.8665 402.902 80.0781 407.581 80.2898 412.261C81.1365 431.159 81.9832 448.977 109.606 452.937C133.525 456.357 159.349 451.317 184.432 446.368C200.837 443.128 216.289 440.068 230.894 439.348C260.528 437.908 292.067 433.949 322.23 427.919C324.453 427.469 326.57 427.019 328.898 426.569C356.31 421.17 387.425 415.051 407.111 397.952C423.092 384.093 423.198 366.725 423.304 348.457C423.304 346.297 423.304 344.137 423.409 341.888C423.621 330.369 424.574 318.4 425.42 306.971C426.373 295.452 427.22 283.483 427.431 272.144C427.855 248.026 421.928 221.569 416.636 198.171L415.895 194.932C411.133 173.514 405.735 149.306 386.896 133.287C369.116 118.259 344.244 115.469 320.22 112.679C318.632 112.499 317.044 112.319 315.563 112.139C311.753 111.689 307.943 111.24 304.133 110.79C279.684 107.91 254.39 104.85 231 105.03C216.924 105.12 202.001 105.93 187.607 106.74C172.79 107.55 157.55 108.36 142.627 108.54C138.711 108.54 134.795 108.54 130.668 108.45C127.493 108.36 124.423 108.36 121.248 108.36Z" fill="white" fill-opacity="0.2"/>
<path d="M152.787 434.399C144.109 434.399 135.642 433.589 127.704 431.519C106.325 426.029 102.621 411.361 98.5994 395.972C97.6469 392.463 96.8002 388.773 95.636 385.173C91.9317 373.744 84.7349 363.575 77.8556 353.766C72.5638 346.297 67.1662 338.558 63.1444 330.279C54.0425 311.29 49.4916 291.222 49.8091 272.234C50.2324 251.536 50.1266 228.408 49.7033 199.341C49.5974 195.561 49.3857 191.422 49.1741 187.102C48.0099 164.694 46.5282 136.887 65.2611 121.229C82.3007 106.92 108.548 109.89 131.726 112.589C135.748 113.039 139.558 113.489 143.156 113.849C175.542 116.819 205.176 118.259 231.106 118.169C252.167 118.079 274.604 118.709 296.407 119.249C300.111 119.339 303.709 119.429 307.308 119.519C309.848 119.609 312.388 119.609 314.928 119.699C338 120.149 364.247 120.689 381.922 135.537C399.914 150.746 402.983 173.964 405.735 194.572C405.947 196.101 406.158 197.631 406.37 199.071C409.439 221.389 412.614 247.577 412.297 272.144C411.979 293.202 413.778 315.97 417.377 337.928C417.694 339.818 418.012 341.708 418.329 343.597C421.293 360.246 424.362 377.524 408.804 391.203C389.119 408.481 354.722 413.251 326.993 417.12C323.501 417.57 320.114 418.11 316.833 418.56C290.691 422.43 261.904 424.95 231 426.209C220.522 426.659 209.198 428.279 197.238 430.079C182.421 432.149 167.287 434.399 152.787 434.399ZM102.515 111.15C88.7567 111.15 75.7389 113.489 65.8961 121.769C47.5865 137.157 48.9624 164.784 50.1266 187.012C50.3383 191.332 50.5499 195.471 50.6558 199.251C51.185 228.228 51.185 251.446 50.7616 272.144C50.4441 291.042 54.995 311.02 63.9911 329.919C67.907 338.198 73.4105 345.847 78.5964 353.316C85.5816 363.215 92.7784 373.384 96.4827 384.903C97.6469 388.503 98.5994 392.193 99.5519 395.792C103.468 411.001 107.066 425.31 127.916 430.709C149.083 436.198 173.425 432.599 196.921 429.179C208.88 427.379 220.311 425.759 230.894 425.31C261.692 424.05 290.48 421.44 316.515 417.66C319.796 417.21 323.183 416.67 326.676 416.22C354.193 412.441 388.378 407.671 407.852 390.573C423.092 377.164 420.234 360.966 417.165 343.687C416.848 341.798 416.53 339.908 416.213 338.018C412.614 316.06 410.815 293.202 411.133 272.144C411.45 247.667 408.381 221.479 405.206 199.161C404.994 197.631 404.782 196.191 404.571 194.662C401.819 174.234 398.75 151.106 381.075 136.167C363.718 121.499 337.788 121.049 314.822 120.599C312.282 120.509 309.636 120.509 307.096 120.419C303.498 120.329 299.793 120.239 296.195 120.149C274.393 119.519 251.955 118.889 231 119.069C204.964 119.249 175.33 117.809 142.945 114.749C139.24 114.389 135.536 113.939 131.514 113.489C122.095 112.319 112.146 111.15 102.515 111.15Z" fill="white" fill-opacity="0.2"/>
<path d="M177.87 415.321C167.075 415.321 156.597 414.241 147.072 410.911C131.197 405.331 125.588 395.072 119.767 384.273C117.65 380.314 115.427 376.264 112.57 372.215C108.971 366.995 105.373 361.956 101.986 357.186C82.8299 330.369 66.3195 307.241 66.2136 272.054C66.2136 254.146 64.2028 235.878 62.4035 218.329C61.6627 211.22 60.816 203.841 60.181 196.551C59.8635 193.582 59.4401 190.072 59.0168 186.292C56.4767 166.314 52.5608 136.077 69.4946 122.758C85.3699 110.25 111.194 115.019 131.832 118.889C135.113 119.519 138.182 120.059 141.04 120.509C146.543 121.409 152.152 122.398 157.656 123.388C181.575 127.528 206.34 131.848 230.894 131.938C246.981 132.028 263.28 131.128 279.049 130.318C287.94 129.868 297.147 129.328 306.249 129.058C308.26 128.968 310.271 128.878 312.494 128.788C333.237 127.888 359.167 126.808 374.619 139.947C390.389 153.355 392.082 175.763 393.458 193.762C393.564 195.201 393.67 196.641 393.775 197.991C395.68 220.849 395.68 244.247 395.68 266.745V272.054C395.68 290.952 401.184 309.491 406.582 327.399C407.428 330.279 408.275 333.068 409.122 335.948C409.545 337.478 409.968 338.918 410.497 340.448C415.048 355.296 419.705 370.685 406.687 383.194C390.6 398.672 355.992 402.272 330.697 404.972C326.887 405.421 323.183 405.781 319.902 406.141C290.48 409.741 260.634 411.721 230.894 412.081C223.38 412.171 215.442 412.801 206.975 413.521C197.344 414.421 187.501 415.321 177.87 415.321ZM97.9644 115.649C87.4866 115.649 77.7497 117.539 70.2354 123.478C53.725 136.527 57.5351 166.404 60.0752 186.202C60.6043 189.892 61.0277 193.492 61.2394 196.461C61.8744 203.661 62.7211 211.04 63.4619 218.239C65.367 235.878 67.272 254.146 67.272 272.054C67.272 306.971 83.7824 329.919 102.833 356.556C106.325 361.416 109.924 366.455 113.416 371.675C116.274 375.814 118.497 379.864 120.613 383.824C126.646 394.982 131.832 404.612 147.39 410.011C165.064 416.22 186.337 414.421 206.869 412.711C215.336 411.991 223.38 411.361 230.894 411.271C260.528 410.911 290.374 408.931 319.69 405.421C322.971 405.061 326.676 404.612 330.486 404.252C355.569 401.552 389.965 397.952 405.735 382.744C418.435 370.595 413.778 355.476 409.333 340.808C408.91 339.278 408.381 337.748 407.957 336.308C407.111 333.428 406.264 330.549 405.417 327.759C400.02 309.851 394.516 291.222 394.516 272.234V266.925C394.516 244.337 394.516 221.029 392.611 198.171C392.505 196.821 392.4 195.381 392.294 193.942C390.918 176.123 389.119 153.895 373.667 140.667C358.532 127.798 332.92 128.878 312.388 129.778C310.271 129.868 308.154 129.958 306.143 130.048C297.042 130.408 287.834 130.858 278.944 131.308C263.174 132.118 246.77 133.017 230.788 132.927C206.129 132.927 181.257 128.608 157.338 124.378C151.941 123.388 146.226 122.488 140.722 121.499C137.864 121.049 134.795 120.419 131.514 119.879C121.142 117.899 109.183 115.649 97.9644 115.649Z" fill="white" fill-opacity="0.2"/>
<path d="M209.833 398.312C194.592 398.312 179.246 397.592 165.805 392.733C151.941 387.783 142.627 378.154 133.631 368.885C131.197 366.365 128.657 363.755 126.011 361.236C97.9644 334.328 83.3591 304.361 82.6182 272.054C82.3007 255.946 79.4431 239.207 76.6914 223.099C75.3155 215.27 73.9397 207.26 72.8813 199.341C72.458 196.641 72.0346 193.582 71.3996 190.252C68.1187 170.544 63.5678 143.636 79.0198 130.498C93.4135 118.259 124 125.458 144.215 130.228C147.072 130.858 149.718 131.488 152.046 132.028C158.185 133.287 164.429 134.817 170.568 136.257C190.571 140.937 211.209 145.796 230.894 145.976C241.16 146.066 254.813 144.176 269.207 142.197C303.921 137.337 343.292 131.938 364.036 148.496C379.382 160.735 380.017 186.382 380.334 203.391C380.334 204.831 380.44 206.18 380.44 207.53C380.758 219.049 380.334 230.838 379.805 242.267C379.382 252.166 378.958 262.425 379.17 272.144C379.382 286.993 385.52 301.841 391.447 316.24C392.823 319.66 394.305 323.259 395.681 326.679C396.316 328.209 396.951 329.829 397.586 331.449C403.089 345.037 409.968 362.046 397.48 373.924C382.451 388.233 350.277 391.113 326.781 393.183C323.183 393.543 319.69 393.813 316.621 394.083C287.305 397.052 258.517 398.492 230.894 398.222C226.978 398.222 223.062 398.222 218.829 398.222C215.971 398.312 212.902 398.312 209.833 398.312ZM103.15 124.648C93.9426 124.648 85.5816 126.358 79.8665 131.128C64.732 143.906 69.2829 170.634 72.5638 190.162C73.093 193.402 73.6222 196.551 74.0455 199.251C75.1039 207.17 76.4797 215.18 77.8556 223.009C80.6073 239.207 83.4649 255.946 83.7824 272.054C84.5233 304.091 99.0228 333.968 126.858 360.696C129.503 363.215 132.044 365.825 134.478 368.345C143.791 377.974 152.576 386.973 166.229 391.923C182.21 397.682 200.943 397.502 218.935 397.322C223.168 397.322 227.084 397.232 231 397.322C258.517 397.592 287.305 396.242 316.621 393.183C319.796 392.823 323.183 392.553 326.781 392.283C350.065 390.213 382.028 387.423 396.845 373.385C408.91 361.866 402.137 345.127 396.739 331.808C396.104 330.189 395.469 328.569 394.834 327.039C393.458 323.619 392.082 320.02 390.6 316.6C384.674 302.111 378.535 287.173 378.323 272.234C378.218 262.515 378.641 252.256 378.958 242.357C379.382 230.928 379.911 219.139 379.594 207.71C379.594 206.36 379.488 205.011 379.488 203.571C379.064 186.742 378.429 161.275 363.506 149.306C343.186 133.107 304.027 138.507 269.524 143.276C255.131 145.256 241.372 147.146 231 147.056C211.209 146.876 190.465 142.017 170.462 137.337C164.429 135.897 158.079 134.457 152.046 133.107C149.718 132.567 147.072 131.938 144.215 131.308C132.149 128.338 116.697 124.648 103.15 124.648Z" fill="white" fill-opacity="0.2"/>
<path d="M244.653 384.363C239.996 384.363 235.445 384.273 231 384.183C196.603 383.374 164.006 371.405 139.134 350.707C113.946 329.649 99.7636 301.751 99.1286 272.054C98.8111 258.195 95.8477 243.617 92.9901 229.488C91.4026 221.479 89.7092 213.2 88.545 205.191C88.2275 203.121 87.91 200.871 87.4866 198.531C84.6291 181.343 80.6073 157.855 94.8951 145.526C108.125 134.097 131.303 139.137 148.236 142.916C149.506 143.186 150.671 143.456 151.835 143.726C160.09 145.526 168.557 147.776 176.812 149.936C194.804 154.705 213.537 159.655 231 159.925C240.737 160.105 253.225 158.125 266.455 156.055C296.301 151.376 330.062 146.066 349.43 161.725C371.444 179.453 367.74 216.349 364.671 246.047C363.718 255.766 362.766 265.035 362.977 272.144C363.189 280.603 368.481 291.762 374.09 303.551C384.144 324.609 395.469 348.547 379.593 362.945C365.094 376.084 337.047 378.604 316.515 380.494C314.187 380.674 311.964 380.944 309.848 381.124C287.305 383.284 265.397 384.363 244.653 384.363ZM231 383.374C255.66 384.004 282.119 382.924 309.742 380.224C311.859 380.044 314.081 379.774 316.409 379.594C336.73 377.794 364.565 375.274 378.747 362.316C394.093 348.367 382.874 324.699 373.032 303.911C367.422 292.032 362.025 280.783 361.813 272.144C361.601 264.945 362.554 255.676 363.506 245.957C366.47 216.529 370.174 179.813 348.584 162.445C329.639 147.146 296.089 152.366 266.561 157.045C253.331 159.115 240.843 161.095 230.894 160.915C213.325 160.645 194.592 155.695 176.495 150.836C168.239 148.676 159.772 146.426 151.517 144.626C150.353 144.356 149.083 144.086 147.919 143.816C131.303 140.127 108.442 135.087 95.5302 146.246C81.6657 158.305 85.4757 181.523 88.3333 198.531C88.7567 200.871 89.0742 203.121 89.3917 205.191C90.5559 213.2 92.2492 221.479 93.8368 229.488C96.6943 243.617 99.6577 258.195 99.9753 272.144C100.61 301.571 114.686 329.199 139.664 350.167C164.535 370.685 196.921 382.474 231 383.374Z" fill="white" fill-opacity="0.2"/>
<path d="M264.973 370.775C257.036 370.775 249.415 370.595 242.536 370.505C238.408 370.415 234.598 370.325 231 370.325C201.154 370.055 172.684 359.436 150.776 340.538C129.08 321.819 116.591 297.522 115.533 272.144C115.216 264.315 112.887 254.146 110.453 243.257C104.315 215.72 96.5885 181.523 116.803 164.874C134.16 150.566 165.699 159.025 193.534 166.494C207.716 170.274 221.157 173.874 230.894 173.874C231 173.874 231 173.874 231.106 173.874C239.361 173.874 249.415 172.434 260.105 170.904C286.564 167.124 316.515 162.895 334.084 177.653C353.134 193.672 350.171 225.169 347.843 250.456C347.102 258.375 346.361 265.845 346.467 271.964C346.573 279.973 350.912 289.513 355.569 299.682C363.93 318.04 372.608 337.028 358.215 350.257C338.952 368.075 298.947 370.775 264.973 370.775ZM143.05 158.035C133.102 158.035 124.212 160.105 117.544 165.504C97.7527 181.793 105.373 215.72 111.511 243.077C113.946 253.966 116.274 264.225 116.591 272.054C117.544 297.252 129.927 321.279 151.517 339.818C173.319 358.536 201.578 369.065 231 369.335C234.598 369.335 238.408 369.425 242.536 369.515C278.944 370.235 333.978 371.225 357.474 349.717C371.444 336.938 362.871 318.13 354.616 300.042C349.959 289.782 345.514 280.153 345.408 271.964C345.303 265.755 346.043 258.285 346.784 250.366C349.113 225.259 352.076 194.032 333.343 178.283C316.198 163.884 286.458 168.024 260.316 171.714C249.521 173.244 239.361 174.683 231 174.683C221.051 174.683 207.61 171.084 193.322 167.214C176.6 162.895 158.502 158.035 143.05 158.035Z" fill="white" fill-opacity="0.2"/>
<path d="M252.802 356.196C249.204 356.196 245.711 356.196 242.324 356.196C238.938 356.196 235.657 356.196 232.799 356.196C232.693 356.196 232.693 356.196 232.588 356.196C209.621 356.196 185.173 346.387 165.488 329.379C146.437 312.82 134.584 291.402 133.737 272.054C133.525 267.195 132.784 261.255 132.044 254.956C128.974 230.298 125.27 199.701 144.215 184.763C159.772 172.524 184.009 178.103 205.388 183.143C215.548 185.482 225.179 187.732 232.905 187.822C239.784 187.912 248.145 187.012 257.036 186.022C280.637 183.503 307.308 180.533 323.183 193.942C339.27 207.53 336.095 232.548 333.555 252.706C332.708 259.815 331.861 266.565 331.967 271.964C332.179 278.354 335.46 285.823 339.058 293.832C345.62 308.411 353.029 324.879 340.434 337.388C322.865 354.576 283.283 356.196 252.802 356.196ZM234.175 355.206C236.715 355.206 239.467 355.206 242.324 355.206C273.334 355.386 320.325 355.746 339.482 336.668C351.653 324.609 344.668 309.041 337.894 294.012C334.296 286.003 330.909 278.444 330.697 271.874C330.591 266.475 331.438 259.725 332.285 252.526C334.825 232.548 337.894 207.71 322.23 194.482C306.673 181.343 280.214 184.223 256.93 186.742C248.04 187.732 239.679 188.632 232.693 188.542C224.862 188.452 215.125 186.202 204.964 183.773C183.903 178.913 159.984 173.334 144.85 185.212C126.328 199.791 130.033 230.208 132.996 254.686C133.737 260.985 134.478 266.925 134.689 271.874C135.536 291.042 147.284 312.19 166.123 328.659C185.596 345.577 209.727 355.206 232.482 355.206C232.588 355.206 232.588 355.206 232.693 355.206C233.223 355.206 233.752 355.206 234.175 355.206Z" fill="white" fill-opacity="0.2"/>
<path d="M244.441 340.628C225.602 340.628 205.282 332.258 188.56 317.59C172.579 303.461 162.63 285.823 162.101 270.344C161.995 268.545 161.889 266.475 161.783 264.405C160.831 245.417 159.349 216.799 176.6 203.301C189.83 192.952 209.304 195.741 226.449 198.171C233.011 199.071 239.255 199.971 244.759 200.061C249.31 200.151 254.707 199.881 260.528 199.521C279.896 198.441 304.027 197.181 317.574 208.97C330.909 220.669 329.321 240.737 328.051 256.846C327.628 261.795 327.311 266.385 327.416 270.254C327.522 274.844 329.216 280.153 330.909 285.823C334.719 298.422 339.164 312.64 328.157 323.259C310.694 340.178 270.477 340.358 246.346 340.448H244.759C244.653 340.628 244.547 340.628 244.441 340.628ZM202.742 196.821C193.322 196.821 184.432 198.531 177.447 204.021C160.513 217.249 161.995 245.597 162.948 264.405C163.053 266.565 163.159 268.545 163.265 270.434C163.794 285.733 173.637 303.101 189.512 317.05C206.023 331.629 226.237 339.908 244.864 339.818H246.452C270.371 339.728 310.271 339.548 327.416 322.899C338 312.64 333.767 298.602 329.956 286.273C328.157 280.513 326.57 275.114 326.358 270.434C326.252 266.565 326.57 261.885 326.993 256.936C328.263 241.007 329.851 221.209 316.727 209.78C303.603 198.261 279.684 199.521 260.528 200.601C254.813 200.871 249.31 201.231 244.759 201.141C239.255 201.051 233.011 200.151 226.343 199.161C218.723 197.991 210.574 196.821 202.742 196.821Z" fill="white" fill-opacity="0.2"/>
<path d="M265.714 324.249C265.291 324.249 264.762 324.249 264.338 324.249C248.357 324.159 231.741 317.68 218.723 306.611C205.811 295.542 198.297 281.503 198.085 268.005C197.873 250.636 198.826 231.108 212.585 219.679C223.909 210.32 240.737 210.95 255.554 211.49C258.623 211.58 261.481 211.67 264.232 211.76C286.67 211.85 302.862 216.529 313.869 225.979C324.665 235.248 330.062 249.016 330.486 268.095C330.591 270.794 330.803 273.584 331.121 276.644C332.179 287.803 333.343 300.491 323.289 309.581C309.001 322.179 281.695 324.249 265.714 324.249ZM264.444 323.349C280.002 323.439 308.154 321.729 322.654 308.771C332.391 300.041 331.226 287.533 330.274 276.554C329.956 273.584 329.745 270.704 329.639 268.005C328.898 230.478 308.154 212.84 264.444 212.57C261.692 212.57 258.729 212.48 255.66 212.3C241.054 211.76 224.438 211.22 213.431 220.219C199.884 231.378 199.038 250.726 199.249 267.915C199.461 281.143 206.869 295.002 219.57 305.891C232.376 316.87 248.675 323.259 264.444 323.349Z" fill="white" fill-opacity="0.2"/>
<path d="M286.987 307.421C274.287 307.421 262.01 303.011 252.485 295.002C242.959 286.903 237.456 276.014 237.456 265.125C237.456 251.536 241.795 240.917 250.368 233.628C258.941 226.339 271.323 222.739 287.305 222.739C317.785 222.829 336.942 239.027 337.047 265.035C337.153 277.724 332.708 288.433 324.03 295.812C315.351 303.281 302.651 307.331 287.199 307.331C287.199 307.421 287.093 307.421 286.987 307.421ZM286.987 223.639C271.429 223.639 259.364 227.238 251.109 234.258C242.748 241.367 238.514 251.716 238.514 265.125C238.514 275.834 243.912 286.543 253.225 294.372C262.539 302.291 274.604 306.611 287.199 306.521C302.333 306.431 314.716 302.561 323.289 295.182C331.65 287.983 336.095 277.544 335.989 265.035C335.777 239.567 317.15 223.639 287.305 223.549C287.199 223.639 287.093 223.639 286.987 223.639Z" fill="white" fill-opacity="0.2"/>
<path d="M309.107 290.772H309.001C300.534 290.772 291.961 287.443 285.4 281.773C279.049 276.284 275.557 269.174 275.663 262.425C275.98 247.307 291.221 234.258 309.001 234.078C316.939 233.988 324.876 236.958 331.438 242.537C338.318 248.296 342.339 255.766 342.339 262.515C342.339 269.264 338.318 276.734 331.544 282.403C325.088 287.713 317.15 290.772 309.107 290.772ZM309.001 289.872H309.107C316.833 289.872 324.559 286.993 330.803 281.683C337.259 276.194 341.281 268.814 341.281 262.425C341.281 256.036 337.259 248.656 330.697 243.167C324.347 237.767 316.621 234.888 309.001 234.978C291.75 235.158 276.933 247.756 276.721 262.425C276.615 268.994 280.002 275.834 286.14 281.143C292.491 286.633 300.852 289.782 309.001 289.872Z" fill="white" fill-opacity="0.2"/>
<path d="M325.088 274.754C320.431 274.754 316.198 273.314 313.023 270.524C309.848 267.825 308.154 264.045 308.154 260.265C308.26 253.516 315.563 245.867 325.088 245.867C328.792 245.867 333.132 247.666 336.624 250.636C340.011 253.606 342.022 257.206 342.022 260.355C341.916 267.285 333.237 274.754 325.088 274.754C325.194 274.754 325.194 274.754 325.088 274.754ZM325.3 246.857C316.304 246.857 309.53 254.056 309.318 260.355C309.213 263.955 310.906 267.375 313.869 269.984C316.833 272.504 320.855 273.854 325.194 273.944C332.814 273.944 340.963 266.925 341.069 260.445C341.069 257.566 339.164 254.146 335.989 251.356C332.814 248.476 328.792 246.857 325.3 246.857Z" fill="white" fill-opacity="0.2"/>
<g clip-path="url(#clip0_20_184)">
<mask id="path-14-inside-1_20_184" fill="white">
<path d="M50 91H455V327H50V91Z"/>
</mask>
<path d="M264.811 111.494C274.951 115.929 281.306 130.821 285.149 140.514C288.556 150.462 289.619 159.688 289.519 170.169C289.511 171.561 289.504 172.953 289.495 174.386C289.213 188.997 285.401 199.911 278.792 212.828C277.405 212.861 276.019 212.894 274.59 212.927C243.053 213.984 213.472 222.211 191.066 245.813C188.236 249.408 185.565 253.062 182.966 256.825C180.895 259.769 180.895 259.769 178.352 262.306C175.223 262.421 172.323 262.37 169.214 262.147C168.306 262.083 167.398 262.019 166.463 261.952C142.654 259.915 120.126 250.26 104.12 232.25C94.6988 220.655 94.6988 220.655 93.8046 215.524C94.4402 211.559 94.4402 211.559 97.1419 208.229C110.747 198.487 129.331 199.193 145.296 198.873C144.881 198.104 144.467 197.336 144.039 196.544C138.647 186.226 132.617 174.077 135.125 162.082C136.6 159.886 136.6 159.886 138.939 158.276C154.748 155.899 170.552 160.519 184.709 167.156C184.689 166.371 184.669 165.585 184.648 164.775C184.568 161.155 184.519 157.535 184.471 153.915C184.439 152.679 184.407 151.444 184.374 150.171C184.293 142.163 185.007 135.125 188.523 127.828C191.066 125.291 191.066 125.291 194.721 124.656C208.125 125.101 221.627 136.391 230.419 145.673C232.188 147.715 233.886 149.817 235.564 151.932C235.828 150.918 236.092 149.905 236.364 148.86C240.192 135.244 246.095 122.954 255.907 112.604C259.01 111.056 261.402 110.928 264.811 111.494Z" fill="#CCAFFF"/>
<path d="M230.479 221.709C230.059 279.484 229.64 337.258 229.208 396.784C209.069 396.784 188.93 396.784 168.181 396.784C163.095 391.709 163.095 391.709 162.467 387.935C162.47 386.463 162.474 384.992 162.478 383.476C162.47 381.802 162.462 380.129 162.454 378.404C162.471 376.577 162.49 374.75 162.509 372.922C162.512 371.035 162.513 369.147 162.513 367.26C162.517 363.298 162.538 359.336 162.572 355.374C162.615 350.341 162.625 345.309 162.623 340.276C162.624 336.372 162.638 332.467 162.656 328.563C162.664 326.711 162.669 324.858 162.671 323.006C162.739 291.46 171.095 265.564 193.052 242.399C218.989 217.887 218.989 217.887 230.479 221.709Z" fill="#FEF3F3"/>
<path d="M229.843 219.806C230.263 277.581 226.868 337.258 227.301 396.784C247.439 396.784 275.842 396.784 296.591 396.784C297.227 393.612 296.598 395.484 297.227 391.709C297.223 390.238 297.231 389.419 297.227 387.903C297.235 386.23 297.219 385.187 297.227 383.463C297.209 381.636 297.246 379.581 297.227 377.754C297.224 375.867 297.226 372.664 297.227 370.776C297.223 366.814 297.261 365.223 297.227 361.261C297.184 356.229 297.225 352.339 297.227 347.306C297.226 343.402 297.245 339.793 297.227 335.888C297.219 334.036 297.229 326.957 297.227 325.105C297.159 293.559 297.227 243.276 293.413 214.731C273.071 209.022 248.914 209.068 229.843 219.806Z" fill="#F5EDE8"/>
<path d="M264.811 111.494C274.951 115.929 281.306 130.821 285.149 140.514C288.556 150.462 289.619 159.688 289.519 170.169C289.511 171.561 289.503 172.953 289.495 174.386C289.213 188.997 285.401 199.911 278.792 212.828C277.405 212.861 276.019 212.894 274.59 212.927C260.226 213.415 246.935 215.649 233.022 219.171C231.327 219.595 229.631 220.018 227.936 220.44C227.412 219.228 226.887 218.016 226.347 216.768C217.874 197.656 207.534 182.253 188.851 172.067C185.98 169.694 185.98 169.694 184.957 166.314C183.351 138.943 183.351 138.943 188.523 127.828C191.066 125.291 191.066 125.291 194.721 124.656C208.124 125.101 221.627 136.391 230.419 145.673C232.188 147.715 233.886 149.817 235.564 151.932C235.828 150.918 236.092 149.905 236.364 148.86C240.192 135.244 246.095 122.954 255.907 112.604C259.01 111.056 261.402 110.928 264.811 111.494Z" fill="#9C33FF"/>
<path d="M292.777 214.097C311.073 213.125 325.219 216.739 339.818 228.052C349.929 237.145 357.793 250.107 360.161 263.575C360.404 269.083 360.504 274.562 360.161 280.067C358.889 281.336 358.889 281.336 354.36 281.415C352.918 281.389 351.476 281.363 349.99 281.336C350.108 283.22 350.108 283.22 350.228 285.142C350.175 293.906 346.628 300.895 340.772 307.294C334.369 312.913 326.515 315.762 318.071 315.714C316.821 315.709 315.571 315.705 314.284 315.701C312.982 315.69 311.68 315.68 310.338 315.669C309.021 315.663 307.704 315.657 306.348 315.652C303.095 315.637 299.843 315.616 296.591 315.59C296.581 314.393 296.571 313.196 296.56 311.963C296.462 300.688 296.35 289.413 296.226 278.138C296.162 272.342 296.103 266.545 296.055 260.749C296.008 255.155 295.949 249.561 295.882 243.968C295.858 241.833 295.839 239.699 295.824 237.564C295.803 234.575 295.766 231.587 295.725 228.598C295.722 227.715 295.72 226.832 295.717 225.922C295.638 221.354 295.266 217.988 292.777 214.097Z" fill="#47007D"/>
<path d="M164.287 159.624C179.477 163.232 192.254 170.749 203.78 181.112C204.586 181.813 205.392 182.515 206.223 183.238C216.868 193.084 222.867 205.815 227.936 219.171C224.989 222.466 222.067 224.187 218.083 226.07C212.749 228.645 207.618 231.403 202.508 234.395C201.695 233.358 201.695 233.358 200.864 232.299C189.973 219.191 176.547 210.853 160.552 205.216C159.341 204.76 158.13 204.304 156.882 203.834C152.376 202.519 148.231 202.15 143.548 201.886C141.964 201.791 140.381 201.696 138.75 201.599C137.554 201.536 136.357 201.474 135.125 201.41C135.125 200.992 135.125 200.573 135.125 200.142C138.481 199.723 141.838 199.304 145.296 198.873C144.881 198.104 144.466 197.336 144.039 196.544C138.647 186.226 132.617 174.077 135.125 162.082C140.594 153.942 156.107 158.14 164.287 159.624Z" fill="#B27AFF"/>
<path d="M264.811 111.494C274.951 115.929 281.306 130.821 285.149 140.514C288.556 150.462 289.619 159.688 289.519 170.169C289.511 171.561 289.503 172.953 289.495 174.386C289.207 189.32 285.527 199.387 278.792 212.828C266.205 213.456 266.205 213.456 253.364 214.097C253.233 210.643 253.102 207.189 252.967 203.63C252.121 187.637 248.852 167.728 236.836 155.738C234.978 142.23 242.608 129.647 250.503 119.185C257.442 110.271 257.442 110.271 264.811 111.494Z" fill="#47007D"/>
<path d="M296.591 219.171C297.011 219.171 297.43 219.171 297.863 219.171C297.863 239.686 297.863 260.2 297.863 281.336C315.064 281.336 332.266 281.336 349.99 281.336C349.99 292.312 348.222 299.154 340.772 307.294C327.941 318.554 313.594 315.59 296.591 315.59C296.591 283.772 296.591 251.954 296.591 219.171Z" fill="#CCAFFF"/>
<path d="M229.208 145.589C244.121 160.47 253.39 179.108 253.529 200.201C253.52 204.834 253.454 209.464 253.364 214.097C250.054 214.948 246.743 215.793 243.431 216.634C242.024 216.997 242.024 216.997 240.588 217.368C236.702 218.35 233.233 219.171 229.208 219.171C229.208 194.889 229.208 170.607 229.208 145.589Z" fill="#7400C6"/>
<path d="M248.278 276.261C250.821 278.323 250.821 278.323 252.093 281.336C252.002 285.751 251.602 288.053 248.676 291.406C244.639 293.256 242.304 292.76 238.107 291.485C235.167 287.084 235.024 285.241 235.564 280.067C238.458 274.971 242.929 275.594 248.278 276.261Z" fill="#002E58"/>
</g>
<path d="M455 327V325H50V327V329H455V327Z" fill="#EFEFFF" mask="url(#path-14-inside-1_20_184)"/>
<path d="M108.234 192.788L125.835 199.324L113.305 208.544L108.234 192.788Z" fill="#02006D"/>
<path d="M20.041 166.488L68.8018 184.593L34.0897 210.136L20.041 166.488Z" fill="#CCAFFF"/>
<path d="M309.587 53.0244L337.78 65.3313L317.71 82.6941L309.587 53.0244Z" fill="#D9D9D9"/>
<path d="M128.34 27.9406L103.771 38.5489L104.963 7.55196L128.34 27.9406Z" stroke="#EFEFFF"/>
<path d="M455.863 299.941L431.294 310.549L432.485 279.552L455.863 299.941Z" stroke="#EFEFFF"/>
<circle cx="75" cy="425" r="19.5" stroke="#6C6BFF"/>
<circle cx="358" cy="38" r="19.5" stroke="#6C6BFF"/>
<circle cx="128.5" cy="98.5" r="13" stroke="#3396FF"/>
<circle cx="355.5" cy="424.5" r="13" stroke="#F1F1F1"/>
<path d="M72.2504 415C71.3837 415 70.7171 414.783 70.2504 414.35L64.7004 408.75L55.2504 399.35C54.8837 398.983 54.6504 398.7 54.5504 398.5C54.4837 398.267 54.4504 397.883 54.4504 397.35V366C54.4504 365.433 54.4837 365.05 54.5504 364.85C54.6504 364.65 54.8837 364.367 55.2504 364L62.7504 356.4L70.2504 349C70.5504 348.7 70.8504 348.517 71.1504 348.45C71.4504 348.383 71.8171 348.35 72.2504 348.35H86.2504C87.0837 348.35 87.5004 348.767 87.5004 349.6V363.4C87.5004 363.7 87.4671 363.983 87.4004 364.25C87.3671 364.483 87.2171 364.733 86.9504 365L80.3504 371.5L75.1004 376.85V387.35L81.0004 393.35L86.9504 399.15C87.2171 399.383 87.3671 399.633 87.4004 399.9C87.4671 400.167 87.5004 400.45 87.5004 400.75V413.75C87.5004 414.583 87.0837 415 86.2504 415H72.2504ZM92.7114 415C91.8781 415 91.4614 414.583 91.4614 413.75V367.4C91.4614 366.867 91.6281 366.367 91.9614 365.9L103.761 349.1C104.128 348.6 104.661 348.35 105.361 348.35H123.261C123.995 348.35 124.528 348.6 124.861 349.1L136.761 365.9C137.095 366.367 137.261 366.867 137.261 367.4V413.75C137.261 414.583 136.845 415 136.011 415H117.711C116.878 415 116.461 414.583 116.461 413.75V395H112.261V413.75C112.261 414.583 111.845 415 111.011 415H92.7114ZM114.361 377.65C115.795 377.65 116.961 377.2 117.861 376.3C118.761 375.4 119.211 374.25 119.211 372.85C119.211 371.417 118.761 370.25 117.861 369.35C116.961 368.45 115.795 368 114.361 368C112.928 368 111.761 368.45 110.861 369.35C109.961 370.25 109.511 371.417 109.511 372.85C109.511 374.25 109.961 375.4 110.861 376.3C111.761 377.2 112.928 377.65 114.361 377.65ZM159.065 415C158.199 415 157.532 414.783 157.065 414.35L151.515 408.75L142.065 399.35C141.699 398.983 141.465 398.7 141.365 398.5C141.299 398.267 141.265 397.883 141.265 397.35V366C141.265 365.433 141.299 365.05 141.365 364.85C141.465 364.65 141.699 364.367 142.065 364L149.565 356.4L157.065 349C157.365 348.7 157.665 348.517 157.965 348.45C158.265 348.383 158.632 348.35 159.065 348.35H173.065C173.899 348.35 174.315 348.767 174.315 349.6V363.4C174.315 363.7 174.282 363.983 174.215 364.25C174.182 364.483 174.032 364.733 173.765 365L167.165 371.5L161.915 376.85V387.35L167.815 393.35L173.765 399.15C174.032 399.383 174.182 399.633 174.215 399.9C174.282 400.167 174.315 400.45 174.315 400.75V413.75C174.315 414.583 173.899 415 173.065 415H159.065ZM179.526 415C178.693 415 178.276 414.583 178.276 413.75V367.4C178.276 366.867 178.443 366.367 178.776 365.9L190.576 349.1C190.943 348.6 191.476 348.35 192.176 348.35H210.076C210.81 348.35 211.343 348.6 211.676 349.1L223.576 365.9C223.91 366.367 224.076 366.867 224.076 367.4V413.75C224.076 414.583 223.66 415 222.826 415H204.526C203.693 415 203.276 414.583 203.276 413.75V395H199.076V413.75C199.076 414.583 198.66 415 197.826 415H179.526ZM201.176 377.65C202.61 377.65 203.776 377.2 204.676 376.3C205.576 375.4 206.026 374.25 206.026 372.85C206.026 371.417 205.576 370.25 204.676 369.35C203.776 368.45 202.61 368 201.176 368C199.743 368 198.576 368.45 197.676 369.35C196.776 370.25 196.326 371.417 196.326 372.85C196.326 374.25 196.776 375.4 197.676 376.3C198.576 377.2 199.743 377.65 201.176 377.65Z" fill="#F1F1F1"/>
<path d="M236.38 415C235.547 415 235.13 414.583 235.13 413.75V368.35H229.33C228.497 368.35 228.08 367.933 228.08 367.1V349.6C228.08 348.767 228.497 348.35 229.33 348.35H261.83C262.664 348.35 263.08 348.767 263.08 349.6V367.1C263.08 367.933 262.664 368.35 261.83 368.35H255.98V413.75C255.98 414.583 255.564 415 254.73 415H236.38ZM268.295 415C267.461 415 267.045 414.583 267.045 413.75V367.4C267.045 366.867 267.211 366.367 267.545 365.9L279.345 349.1C279.711 348.6 280.245 348.35 280.945 348.35H298.845C299.578 348.35 300.111 348.6 300.445 349.1L312.345 365.9C312.678 366.367 312.845 366.867 312.845 367.4V413.75C312.845 414.583 312.428 415 311.595 415H293.295C292.461 415 292.045 414.583 292.045 413.75V395H287.845V413.75C287.845 414.583 287.428 415 286.595 415H268.295ZM289.945 377.65C291.378 377.65 292.545 377.2 293.445 376.3C294.345 375.4 294.795 374.25 294.795 372.85C294.795 371.417 294.345 370.25 293.445 369.35C292.545 368.45 291.378 368 289.945 368C288.511 368 287.345 368.45 286.445 369.35C285.545 370.25 285.095 371.417 285.095 372.85C285.095 374.25 285.545 375.4 286.445 376.3C287.345 377.2 288.511 377.65 289.945 377.65ZM318.099 415C317.265 415 316.849 414.583 316.849 413.75V349.6C316.849 348.767 317.265 348.35 318.099 348.35H336.399C337.232 348.35 337.649 348.767 337.649 349.6V395H346.099C346.932 395 347.349 395.417 347.349 396.25V413.75C347.349 414.583 346.932 415 346.099 415H318.099ZM352.571 415C351.737 415 351.321 414.583 351.321 413.75V349.6C351.321 348.767 351.737 348.35 352.571 348.35H370.871C371.704 348.35 372.121 348.767 372.121 349.6V369.15H372.871L376.071 356.65L377.971 349C378.037 348.7 378.237 348.517 378.571 348.45C378.937 348.383 379.271 348.35 379.571 348.35H396.471C397.304 348.35 397.721 348.767 397.721 349.6V362.5C397.721 362.8 397.654 363.067 397.521 363.3C397.387 363.533 397.254 363.8 397.121 364.1L389.871 380.35L389.071 381.75L389.871 383.35L398.321 400.1C398.487 400.367 398.587 400.65 398.621 400.95C398.687 401.217 398.721 401.567 398.721 402V413.75C398.721 414.583 398.304 415 397.471 415H380.371C380.104 415 379.804 414.95 379.471 414.85C379.171 414.75 378.971 414.55 378.871 414.25L375.821 405L372.871 396.25H372.121V413.75C372.121 414.583 371.704 415 370.871 415H352.571ZM403.937 415C403.104 415 402.687 414.583 402.687 413.75V399.65C402.687 399.25 402.704 398.933 402.737 398.7C402.804 398.433 403.004 398.2 403.337 398L413.937 391.9V389.4L403.487 383.9C402.954 383.6 402.687 383.1 402.687 382.4V359.9C402.687 359.367 402.72 358.983 402.787 358.75C402.854 358.483 403.087 358.2 403.487 357.9L416.687 349C416.954 348.8 417.237 348.65 417.537 348.55C417.837 348.417 418.22 348.35 418.687 348.35H436.337C437.17 348.35 437.587 348.767 437.587 349.6V364.4C437.587 365.133 437.337 365.633 436.837 365.9L423.737 371.65V374.25L436.837 381.75C437.337 381.983 437.587 382.517 437.587 383.35V405.1C437.587 405.367 437.537 405.65 437.437 405.95C437.37 406.217 437.204 406.433 436.937 406.6L421.237 414.4C421.037 414.533 420.787 414.667 420.487 414.8C420.22 414.933 419.954 415 419.687 415H403.937Z" fill="#B27AFF"/>
<defs>
<clipPath id="clip0_20_184">
<path d="M50 91H455V327H50V91Z" fill="white"/>
</clipPath>
</defs>
</svg>
