<svg width="57" height="56" viewBox="0 0 57 56" fill="none" xmlns="http://www.w3.org/2000/svg">
<path d="M34.3061 4.09485C35.9843 4.83051 37.0362 7.30065 37.6722 8.90862C38.2362 10.5587 38.4122 12.0891 38.3956 13.8276C38.3943 14.0584 38.393 14.2893 38.3917 14.5271C38.345 16.9507 37.714 18.761 36.6201 20.9036C36.3906 20.909 36.1611 20.9144 35.9246 20.92C30.7047 21.0953 25.8084 22.46 22.0998 26.375C21.6314 26.9712 21.1894 27.5773 20.7591 28.2015C20.4163 28.6898 20.4163 28.6898 19.9955 29.1107C19.4776 29.1298 18.9976 29.1213 18.4829 29.0843C18.3327 29.0737 18.1824 29.063 18.0276 29.052C14.0867 28.7141 10.358 27.1126 7.70868 24.1251C6.14935 22.2018 6.14935 22.2018 6.00134 21.3508C6.10656 20.6931 6.10656 20.6931 6.55374 20.1407C8.80558 18.5248 11.8816 18.6419 14.5241 18.5888C14.4554 18.4613 14.3868 18.3338 14.3161 18.2024C13.4236 16.491 12.4255 14.4758 12.8406 12.4861C13.0847 12.1219 13.0847 12.1219 13.4719 11.8547C16.0886 11.4605 18.7044 12.2269 21.0477 13.3278C21.0443 13.1975 21.041 13.0672 21.0376 12.9329C21.0244 12.3324 21.0163 11.7319 21.0082 11.1314C21.0029 10.9264 20.9976 10.7215 20.9922 10.5103C20.9788 9.18207 21.0971 8.01462 21.679 6.80424C22.0998 6.38336 22.0998 6.38336 22.7049 6.27814C24.9234 6.35194 27.1582 8.22457 28.6136 9.76434C28.9063 10.1029 29.1873 10.4516 29.4652 10.8026C29.5088 10.6344 29.5525 10.4662 29.5975 10.2929C30.2311 8.03435 31.2081 5.99586 32.8322 4.27898C33.3458 4.02219 33.7417 4.00098 34.3061 4.09485Z" fill="#CCAFFF"/>
<path d="M28.6234 22.3766C28.554 31.96 28.4846 41.5433 28.413 51.4171C25.0797 51.4171 21.7463 51.4171 18.312 51.4171C17.4702 50.5753 17.4702 50.5753 17.3662 49.9492C17.3668 49.7051 17.3674 49.4611 17.368 49.2096C17.3667 48.932 17.3654 48.6544 17.3641 48.3684C17.367 48.0652 17.37 47.7621 17.3732 47.459C17.3737 47.1459 17.3739 46.8329 17.3738 46.5198C17.3745 45.8626 17.378 45.2055 17.3836 44.5483C17.3907 43.7135 17.3924 42.8787 17.3921 42.0439C17.3922 41.3962 17.3945 40.7486 17.3975 40.101C17.3989 39.7937 17.3997 39.4864 17.4 39.1792C17.4113 33.9466 18.7944 29.6511 22.4287 25.8086C26.7216 21.7427 26.7216 21.7427 28.6234 22.3766Z" fill="#FEF3F3"/>
<path d="M28.5182 22.061C28.5877 31.6443 28.0258 41.5433 28.0974 51.417C31.4307 51.417 36.1319 51.417 39.5662 51.417C39.6715 50.891 39.5674 51.2014 39.6715 50.5753C39.6709 50.3312 39.6721 50.1955 39.6715 49.944C39.6728 49.6664 39.6701 49.4935 39.6715 49.2075C39.6686 48.9043 39.6747 48.5636 39.6715 48.2605C39.671 47.9474 39.6713 47.4161 39.6715 47.1031C39.6708 46.4459 39.6771 46.182 39.6715 45.5248C39.6644 44.69 39.6711 44.0448 39.6715 43.21C39.6713 42.5623 39.6745 41.9637 39.6715 41.316C39.6701 41.0088 39.6718 39.8346 39.6715 39.5273C39.6602 34.2947 39.6715 25.9541 39.0401 21.2192C35.6731 20.2722 31.6748 20.2798 28.5182 22.061Z" fill="#F5EDE8"/>
<path d="M34.3061 4.09485C35.9843 4.83051 37.0362 7.30065 37.6722 8.90862C38.2362 10.5587 38.4122 12.0891 38.3956 13.8276C38.3943 14.0584 38.3931 14.2893 38.3917 14.5271C38.345 16.9507 37.714 18.7609 36.6201 20.9036C36.3906 20.909 36.1611 20.9144 35.9246 20.92C33.5471 21.0008 31.3473 21.3715 29.0443 21.9558C28.7637 22.026 28.4832 22.0962 28.2025 22.1662C28.1157 21.9652 28.0289 21.7642 27.9395 21.5571C26.5372 18.387 24.8256 15.8319 21.7332 14.1424C21.2581 13.7487 21.2581 13.7487 21.0888 13.1881C20.8229 8.64798 20.8229 8.64798 21.679 6.80424C22.0998 6.38336 22.0998 6.38336 22.7049 6.27814C24.9234 6.35194 27.1582 8.22457 28.6136 9.76434C28.9063 10.1029 29.1873 10.4516 29.4652 10.8026C29.5088 10.6344 29.5525 10.4662 29.5975 10.2929C30.2311 8.03435 31.2081 5.99586 32.8322 4.27898C33.3458 4.02219 33.7417 4.00098 34.3061 4.09485Z" fill="#9C33FF"/>
<path d="M38.9349 21.114C41.9632 20.9527 44.3047 21.5522 46.7211 23.4288C48.3947 24.937 49.6962 27.0871 50.0881 29.3211C50.1284 30.2347 50.145 31.1437 50.0881 32.0568C49.8777 32.2672 49.8777 32.2672 49.128 32.2804C48.8893 32.276 48.6506 32.2717 48.4046 32.2672C48.4242 32.5797 48.4242 32.5797 48.4441 32.8985C48.4353 34.3522 47.8483 35.5115 46.879 36.573C45.8191 37.5051 44.5193 37.9777 43.1215 37.9696C42.9147 37.9689 42.7078 37.9682 42.4947 37.9675C42.2792 37.9658 42.0637 37.964 41.8416 37.9622C41.6236 37.9612 41.4057 37.9603 41.1811 37.9593C40.6428 37.9568 40.1045 37.9534 39.5663 37.949C39.5645 37.7505 39.5628 37.552 39.5611 37.3475C39.5448 35.4773 39.5263 33.6071 39.5057 31.7369C39.4952 30.7754 39.4855 29.8139 39.4775 28.8523C39.4697 27.9245 39.46 26.9967 39.4488 26.0688C39.4449 25.7148 39.4417 25.3607 39.4393 25.0066C39.4357 24.5109 39.4296 24.0152 39.4229 23.5195C39.4225 23.3729 39.422 23.2264 39.4215 23.0754C39.4084 22.3178 39.3469 21.7595 38.9349 21.114Z" fill="#47007D"/>
<path d="M17.6675 12.0783C20.1816 12.6768 22.2966 13.9237 24.2042 15.6426C24.3377 15.759 24.4711 15.8754 24.6086 15.9953C26.3706 17.6286 27.3635 19.7403 28.2025 21.9558C27.7147 22.5022 27.2312 22.7877 26.5716 23.1C25.6887 23.5272 24.8395 23.9846 23.9938 24.481C23.8591 24.3089 23.8591 24.3089 23.7217 24.1333C21.919 21.9589 19.6967 20.576 17.0493 19.6409C16.8489 19.5653 16.6484 19.4896 16.4419 19.4116C15.6959 19.1935 15.0099 19.1324 14.2347 19.0886C13.9727 19.0728 13.7106 19.0571 13.4406 19.0409C13.2426 19.0306 13.0446 19.0203 12.8406 19.0096C12.8406 18.9402 12.8406 18.8707 12.8406 18.7992C13.3961 18.7298 13.9517 18.6603 14.5241 18.5888C14.4554 18.4613 14.3868 18.3338 14.3161 18.2024C13.4236 16.491 12.4255 14.4758 12.8406 12.4861C13.7458 11.1358 16.3135 11.8323 17.6675 12.0783Z" fill="#B27AFF"/>
<path d="M34.3061 4.09484C35.9843 4.8305 37.0362 7.30064 37.6723 8.90861C38.2363 10.5587 38.4122 12.0891 38.3956 13.8276C38.3944 14.0584 38.3931 14.2893 38.3917 14.5271C38.3439 17.0042 37.7348 18.674 36.6201 20.9036C34.5367 21.0077 34.5367 21.0077 32.4113 21.114C32.3896 20.5411 32.3679 19.9682 32.3456 19.3779C32.2056 16.725 31.6645 13.4227 29.6756 11.4339C29.3681 9.19312 30.631 7.10599 31.9378 5.37062C33.0864 3.89198 33.0864 3.89198 34.3061 4.09484Z" fill="#47007D"/>
<path d="M39.5662 21.9558C39.6356 21.9558 39.7051 21.9558 39.7766 21.9558C39.7766 25.3586 39.7766 28.7613 39.7766 32.2672C42.6238 32.2672 45.471 32.2672 48.4046 32.2672C48.4046 34.0879 48.1119 35.2228 46.8789 36.573C44.755 38.4408 42.3804 37.9491 39.5662 37.9491C39.5662 32.6713 39.5662 27.3935 39.5662 21.9558Z" fill="#B27AFF"/>
<path d="M28.413 9.75037C30.8814 12.2188 32.4155 15.3102 32.4386 18.809C32.4371 19.5776 32.4262 20.3456 32.4113 21.114C31.8635 21.2552 31.3155 21.3954 30.7672 21.5349C30.5343 21.5951 30.5343 21.5951 30.2966 21.6566C29.6534 21.8195 29.0793 21.9558 28.413 21.9558C28.413 17.928 28.413 13.9002 28.413 9.75037Z" fill="#7400C6"/>
<path d="M31.5696 31.4255C31.9905 31.7674 31.9905 31.7674 32.2009 32.2672C32.186 32.9996 32.1197 33.3815 31.6354 33.9376C30.9673 34.2445 30.5808 34.1622 29.8861 33.9507C29.3994 33.2207 29.3758 32.9149 29.4652 32.0568C29.9442 31.2115 30.6842 31.3148 31.5696 31.4255Z" fill="#002E58"/>
</svg>
